<svg width="18" height="18" viewBox="0 0 18 18" fill="none" xmlns="http://www.w3.org/2000/svg">
<path d="M12.5524 1.2341L1.86792 11.9186C1.4202 12.3663 1.19634 12.5901 1.04915 12.8652C0.901967 13.1402 0.839879 13.4506 0.715703 14.0715L0.067496 17.3125C-0.00257296 17.6629 -0.0376074 17.838 0.0620448 17.9377C0.161697 18.0374 0.336869 18.0023 0.687213 17.9322L3.92825 17.284C4.54913 17.1599 4.85957 17.0978 5.13459 16.9506C5.40961 16.8034 5.63347 16.5795 6.08119 16.1318L16.7656 5.44737C17.34 4.87305 17.6271 4.58589 17.7806 4.27611C18.0727 3.68673 18.0727 2.99474 17.7806 2.40535C17.6271 2.09558 17.34 1.80842 16.7656 1.2341C16.1913 0.659778 15.9042 0.372617 15.5944 0.219111C15.005 -0.0729556 14.313 -0.0729556 13.7236 0.219111C13.4139 0.372617 13.1267 0.659778 12.5524 1.2341Z" fill="#FBFBFB"/>
</svg>
